<svg xmlns="http://www.w3.org/2000/svg" version="1.1" xmlns:xlink="http://www.w3.org/1999/xlink" xmlns:svgjs="http://svgjs.dev/svgjs" width="100%" height="100%" viewBox="0 0 1000 600"><rect width="1000" height="600" x="0" y="0" fill="#f4efea"/><g><rect width="333.3333333333333" height="333.3333333333333" rx="13.333333333333334" ry="13.333333333333334" y="252.34387496519088" fill="#7d141d" transform="matrix(0.5431908323816,0,0,0.5431908323816,0,72.39728183393666)" x="230.12164306640625"/><path d="M260.68672177326414 379.94090946863815L260.68672177326414 379.94090946863815Q260.68672177326414 364.07332997455154 274.3282739282523 354.0562069486083Q287.96982608324055 344.01054511062534 305.8351224201079 344.01054511062534L305.8351224201079 344.01054511062534Q319.590829823255 344.01054511062534 333.23238197824315 350.3461613834441L333.23238197824315 350.3461613834441Q337.7415142805196 352.34387822622483 343.47781550050416 356.76739409238206L343.47781550050416 356.76739409238206L336.457267738732 371.89296447343594Q331.9195966244159 368.38269059254986 327.0109209535833 365.78565869693495L327.0109209535833 365.78565869693495Q315.4812408895347 359.67835292043395 305.8351224201079 359.56419767227504L305.8351224201079 359.56419767227504Q295.4184560256085 359.56419767227504 287.28489459428715 364.9294943357432Q279.1513331629657 370.2947909992114 279.1513331629657 379.94090946863815L279.1513331629657 379.94090946863815Q279.1513331629657 383.8507267180804 280.7209678251506 387.1612289146884Q282.2620636752957 390.47173111129644 286.0862644886187 393.38268993934827L286.0862644886187 393.38268993934827L291.90818214472245 397.8918222416247Q293.9058989875032 399.4043792797301 299.5851225834083 402.31533810778194Q305.2358073672737 405.22629693583383 305.8351224201079 405.62584030438995L305.8351224201079 405.62584030438995L315.3670856413758 410.84844290765955Q322.30201696702875 414.64410490894284 324.8134324265245 416.3564336313263L324.8134324265245 416.3564336313263L332.319139992972 421.37926455031777Q337.4561261601224 424.77538318304494 339.56799825106197 427.54364795089816Q341.6513315299618 430.31191271875144 344.3339798616959 434.30734640431285Q346.98808938139024 438.33131890191396 347.9869478027806 443.04022288846846Q348.985806224171 447.74912687502297 348.985806224171 453.48542809500753L348.985806224171 453.48542809500753Q348.985806224171 470.722870567001 334.63078376818964 482.36670587920844Q320.3043001242481 494.010541191416 301.72553348638763 494.010541191416L301.72553348638763 494.010541191416Q286.2860361728968 494.010541191416 271.9310137169155 485.39181995541924L271.9310137169155 485.39181995541924Q265.62393625613646 481.6817743902551 260.68672177326414 476.5447882231047L260.68672177326414 476.5447882231047L267.8214247831952 461.1052909096139Q273.52918719114007 466.2137382647245 279.1513331629657 469.72401214561063L279.1513331629657 469.72401214561063Q292.3077255132786 478.3712721936471 301.72553348638763 478.3712721936471L301.72553348638763 478.3712721936471Q313.65475691899235 478.3712721936471 322.10224528275074 471.3792632439146Q330.5211948344694 464.41579310622194 330.5211948344694 453.48542809500753L330.5211948344694 453.48542809500753Q330.5211948344694 443.83930962558077 323.35795301249857 436.2194468109744Q316.1661723784881 428.599583996368 305.8351224201079 423.37698139309845L305.8351224201079 423.37698139309845L285.2871777515064 412.6463880661621Q275.04174422924547 407.10985853045565 267.87850240727465 398.8336030389356Q260.68672177326414 390.5573475474156 260.68672177326414 379.94090946863815ZM371.1604631790367 477.5436466444951L371.1604631790367 477.5436466444951L382.20498343840995 465.8141948961684Q386.11480068785215 468.9249254084983 392.33626171251206 472.23542760510634L392.33626171251206 472.23542760510634Q404.2654851451168 478.3712721936471 412.7985899449943 478.3712721936471L412.7985899449943 478.3712721936471Q420.4184527596007 478.3712721936471 427.83854388992904 474.14752801176786Q435.2586350202573 469.9237838298887 435.2586350202573 462.3039210152823L435.2586350202573 462.3039210152823Q435.2586350202573 455.28337325351015 428.152470822366 450.83131857531316Q421.01776781243495 446.3507250850765 404.1798687089976 440.1292640604166L404.1798687089976 440.1292640604166Q397.13078213518577 437.61784860092087 393.27804250982297 436.01967512669626Q389.42530288446017 434.42150165247176 384.40247196546875 431.1966158919829Q379.3796410464773 428.0002689435338 376.9823808351404 423.6909083255354Q374.55658181176386 419.35300889549734 374.55658181176386 413.8450181718306L374.55658181176386 413.8450181718306Q374.55658181176386 400.88839750579575 386.5143440564083 392.98314657079214Q398.44356748901305 385.0493568237488 413.3979049978285 385.0493568237488L413.3979049978285 385.0493568237488Q424.52804169332103 385.0493568237488 437.28489067507775 390.47173111129644L437.28489067507775 390.47173111129644Q442.59310971446644 392.7833748865141 447.302013701021 395.7799501506851L447.302013701021 395.7799501506851L436.8853473065216 408.3370274481638Q433.57484510991355 406.31077179334335 429.66502786047135 404.62698188299964L429.66502786047135 404.62698188299964Q420.6182244438788 400.6886258215177 413.3979049978285 400.6886258215177L413.3979049978285 400.6886258215177Q404.9789554461099 400.6886258215177 398.3008734288144 404.4272101987216Q391.62279141151896 408.1372557638857 391.62279141151896 413.8450181718306L391.62279141151896 413.8450181718306Q391.62279141151896 415.6429633303332 393.27804250982297 417.41236967679606Q394.933293608127 419.1532372112193 398.55772273717196 420.8084883095233Q402.1536130541772 422.4637394078273 404.72210613775235 423.46259782921766Q407.29059922132757 424.4899950626477 411.99950320788207 426.1737849729914L411.99950320788207 426.1737849729914Q423.52918327193066 430.5116844030295 429.1513292437563 433.05163867456497Q434.77347521558204 435.62013175814013 441.05201386432134 439.9294923761385Q447.302013701021 444.2388529941369 449.81342916051665 449.60414965760503Q452.3248446200124 454.9694463210732 452.3248446200124 462.3039210152823L452.3248446200124 462.3039210152823Q452.3248446200124 472.74912622182137 445.30429685824026 480.2548337882689Q438.2837490964681 487.78908016675604 429.66502786047135 490.899810679086Q421.01776781243495 494.010541191416 412.7985899449943 494.010541191416L412.7985899449943 494.010541191416Q400.24151264751566 494.010541191416 384.28831671730984 485.79136332397536L384.28831671730984 485.79136332397536Q377.2677689555377 482.0813177588112 371.1604631790367 477.5436466444951ZM489.9389988883689 403.9991280181257L472.50178473209746 403.9991280181257L472.50178473209746 388.16008733607873L489.9389988883689 388.16008733607873L489.9389988883689 358.36556756660667L507.40475185668015 358.36556756660667L507.40475185668015 388.16008733607873L532.889911008154 388.16008733607873L532.889911008154 403.9991280181257L507.40475185668015 403.9991280181257L507.40475185668015 460.70574754105775Q507.40475185668015 468.32561035566414 509.77347325597736 471.69319017635155Q512.1136558432347 475.0607699970391 520.1616008384369 475.0607699970391L520.1616008384369 475.0607699970391L530.7780389172143 475.0607699970391L530.7780389172143 490.899810679086L512.3134275275128 490.899810679086Q502.2963045015696 490.899810679086 496.13192110098913 485.5915916396973Q489.9389988883689 480.2548337882689 489.9389988883689 471.1224139355571L489.9389988883689 471.1224139355571L489.9389988883689 403.9991280181257Z " fill="#d42b47" transform="matrix(0.5431908323816,0,0,0.5431908323816,0,72.39728183393666)"/><path d="M646.7883146186731 371.19493992717713L646.7883146186731 371.19493992717713Q646.7883146186731 359.1897580451383 657.1093163086273 351.6109471807577Q667.4303179985816 344.01054426263244 680.9469436427476 344.01054426263244L680.9469436427476 344.01054426263244Q691.3543135476805 344.01054426263244 701.6753152376348 348.80398019395005L701.6753152376348 348.80398019395005Q705.0868597292933 350.31542395607727 709.4268625319728 353.66219228650175L709.4268625319728 353.66219228650175L704.115217310783 365.105980771179Q700.6820807653799 362.4501581605841 696.9682475212958 360.48528126981876L696.9682475212958 360.48528126981876Q688.2450578084474 355.8645817684585 680.9469436427476 355.7782135534798L680.9469436427476 355.7782135534798Q673.0658440259415 355.7782135534798 666.9121087087094 359.83751965747854Q660.7583733914773 363.89682576147726 660.7583733914773 371.19493992717713L660.7583733914773 371.19493992717713Q660.7583733914773 374.15305129019754 661.9459363474343 376.6577295245797Q663.1119072496467 379.1624077589619 666.0052424514331 381.3647972409187L666.0052424514331 381.3647972409187L670.4100214153466 384.7763417325772Q671.9214651774738 385.9207205810449 676.218283872664 388.12311006300166Q680.4935105141094 390.32549954495846 680.9469436427476 390.62778829738386L680.9469436427476 390.62778829738386L688.1586895934688 394.57913413265925Q693.4055586534246 397.45087728070087 695.3056593829559 398.74640050538136L695.3056593829559 398.74640050538136L700.9843695178052 402.546601964444Q704.8709391918466 405.1160563600602 706.4687511689524 407.2104855732936Q708.0449710923137 409.304914786527 710.074624144313 412.3278023107814Q712.0826851425677 415.37228188878044 712.8384070236314 418.9349707566517Q713.5941289046949 422.4976596245229 713.5941289046949 426.8376624272024L713.5941289046949 426.8376624272024Q713.5941289046949 439.8792628889856 702.7333258711238 448.6888208168126Q691.8941148912975 457.4983787446397 677.8376879035145 457.4983787446397L677.8376879035145 457.4983787446397Q666.1563868276457 457.4983787446397 655.2955837940747 450.9775785137481L655.2955837940747 450.9775785137481Q650.5237399165018 448.17061152694043 646.7883146186731 444.2840418528991L646.7883146186731 444.2840418528991L652.1863280548416 432.60274077703036Q656.5047388037765 436.4677183973271 660.7583733914773 439.123541007922L660.7583733914773 439.123541007922Q670.7123101677721 445.66593329255824 677.8376879035145 445.66593329255824L677.8376879035145 445.66593329255824Q686.8631663687884 445.66593329255824 693.2544142772119 440.3758801251131Q699.6240701318907 435.1074190114126 699.6240701318907 426.8376624272024L699.6240701318907 426.8376624272024Q699.6240701318907 419.53954826150255 694.2044646419776 413.77446991167454Q688.7632670983196 408.00939156184654 680.9469436427476 404.0580457265712L680.9469436427476 404.0580457265712L665.4006649465823 395.9394335185737Q657.6491176522443 391.75057509210694 652.229512162331 385.4888795061514Q646.7883146186731 379.2271839201959 646.7883146186731 371.19493992717713ZM745.0105671031957 494.01054162688365L732.1201110176253 494.01054162688365L732.1201110176253 377.4134514056433L740.4762358168142 377.4134514056433L742.5058888688136 381.73186215457815Q756.1736588891923 375.0599175474738 767.3367506751888 375.0599175474738L767.3367506751888 375.0599175474738Q778.0464093325472 375.0599175474738 785.8627327881193 381.27842902593994Q793.6790562436913 387.5185325581508 797.0906007353498 396.54401102342456Q800.5021452270083 405.56948948869837 800.5021452270083 415.8257150174186L800.5021452270083 415.8257150174186Q800.5021452270083 433.74711962549816 791.4766667617346 445.6227491850689Q782.4511882964608 457.4983787446397 765.9764512892745 457.4983787446397L765.9764512892745 457.4983787446397Q754.9645038794905 457.4983787446397 745.0105671031957 452.33787789966254L745.0105671031957 452.33787789966254L745.0105671031957 494.01054162688365ZM745.0105671031957 390.62778829738386L745.0105671031957 442.3839411233678Q752.4598256451084 446.27051079740914 763.7740618073176 446.27051079740914L763.7740618073176 446.27051079740914Q772.6483958963787 446.27051079740914 778.1543696012706 441.4338907586021Q783.6603433061625 436.6188627735398 785.5604440356939 429.94691816643547Q787.4605447652251 423.2533815055865 787.4605447652251 414.37904741652545L787.4605447652251 414.37904741652545Q787.4605447652251 401.7908800833804 781.371585609227 393.73704403661696Q775.3042185069736 385.6832079898535 766.2787400416998 385.6832079898535L766.2787400416998 385.6832079898535Q756.9293807702559 385.6832079898535 745.0105671031957 390.62778829738386L745.0105671031957 390.62778829738386ZM815.7677272244929 430.5514956712864L815.7677272244929 430.5514956712864Q815.7677272244929 420.1441257663534 823.3681301426183 413.1698924068237Q830.9469410069988 406.1740669935492 844.6794871886117 406.1740669935492L844.6794871886117 406.1740669935492L865.3430826222648 406.1740669935492L865.3430826222648 400.2578442675085Q865.3430826222648 393.13246653176606 862.5361156354571 390.08798695376703Q859.7291486486495 387.04350737576794 852.1287457305242 387.04350737576794L852.1287457305242 387.04350737576794Q846.5148117569089 387.04350737576794 835.049431218487 388.27425443921436L835.049431218487 388.27425443921436L824.57728515232 389.54818561015014L824.57728515232 377.4134514056433Q832.9981861127429 376.80887390079243 837.0143081092523 376.3554407721542L837.0143081092523 376.3554407721542Q850.682078129631 375.1462857624525 857.3756147904801 375.0599175474738L857.3756147904801 375.0599175474738Q868.3659701465191 375.0599175474738 873.5264709914962 381.27842902593994Q878.6869718364734 387.5185325581508 878.6869718364734 395.63714476614825L878.6869718364734 395.63714476614825L878.6869718364734 455.1448448864702L868.905771490136 455.1448448864702L866.7033820081792 447.54444196834487L866.2499488795411 447.54444196834487Q852.7333232353751 456.7426568635761 840.2963002784428 456.6562886485974L840.2963002784428 456.6562886485974Q828.4422627726167 456.6562886485974 822.1157910254271 448.6456367093233Q815.7677272244929 440.65657682379384 815.7677272244929 430.5514956712864ZM829.284352868659 430.5514956712864L829.284352868659 430.5514956712864Q829.284352868659 436.6188627735398 832.458384769126 441.4338907586021Q835.6540087233378 446.27051079740914 842.9521228890377 446.27051079740914L842.9521228890377 446.27051079740914Q848.1126237340148 446.27051079740914 854.4822795886937 444.02493720796303Q860.8519354433726 441.7793636185169 865.191938246052 438.8212522554966L865.191938246052 438.8212522554966L865.3430826222648 438.8212522554966L865.3430826222648 416.5814368984822L844.6794871886117 416.5814368984822Q829.284352868659 416.5814368984822 829.284352868659 430.5514956712864ZM905.6770390173161 445.4284207013668Q893.7366332965113 433.35846265809397 893.7366332965113 416.27914814605674Q893.7366332965113 399.1998336340195 905.6770390173161 387.1298755907467Q917.6390367918656 375.0599175474738 934.5672069276901 375.0599175474738L934.5672069276901 375.0599175474738Q944.974576832623 375.0599175474738 955.5978672750026 377.4134514056433L955.5978672750026 377.4134514056433L955.5978672750026 389.24589685772474Q945.039352993857 386.89236299955525 934.5672069276901 386.89236299955525L934.5672069276901 386.89236299955525Q922.7347614756087 386.89236299955525 914.5945572138666 395.5075924436802Q906.475945005869 404.12282188780523 906.475945005869 416.27914814605674Q906.475945005869 428.4138823505636 914.6377413213559 437.0507038484333Q922.7995376368426 445.66593329255824 934.5672069276901 445.66593329255824L934.5672069276901 445.66593329255824Q944.974576832623 445.66593329255824 955.5978672750026 443.31239943438874L955.5978672750026 443.31239943438874L955.5978672750026 455.1448448864702Q945.039352993857 457.4983787446397 934.5672069276901 457.4983787446397L934.5672069276901 457.4983787446397Q917.6390367918656 457.4983787446397 905.6770390173161 445.4284207013668ZM971.7703155297636 415.9768593936313L971.7703155297636 415.9768593936313Q971.7703155297636 397.29973290448817 981.7026602523136 386.179825225981Q991.6565970286085 375.0599175474738 1007.9801896595822 375.0599175474738L1007.9801896595822 375.0599175474738Q1040.454638491572 375.0599175474738 1040.454638491572 420.899847647417L1040.454638491572 420.899847647417L984.660771615334 420.899847647417Q985.4164934963977 430.5514956712864 991.7213731898426 438.10871448192233Q998.0262528832874 445.66593329255824 1010.9383010226026 445.66593329255824L1010.9383010226026 445.66593329255824Q1025.8800022139171 445.66593329255824 1036.5896608712756 440.72135298502786L1036.5896608712756 440.72135298502786L1036.5896608712756 452.94245540451345Q1024.9083597954068 457.41201052966096 1012.6008891609424 457.4983787446397L1012.6008891609424 457.4983787446397Q1001.8912305035841 457.4983787446397 993.88057856431 454.15161041421516Q985.8915186787805 450.8264341375354 981.1412668549522 444.97498757272865Q976.3910150311239 439.123541007922 974.0806652804437 431.8470188959668Q971.7703155297636 424.54890473026694 971.7703155297636 415.9768593936313ZM985.1142047439722 410.66521417244144L985.1142047439722 410.66521417244144L1027.1107492773635 410.66521417244144Q1026.0311465901295 400.2578442675085 1021.3240788737908 393.5858996604042Q1016.6170111574519 386.89236299955525 1007.6779009071566 386.89236299955525L1007.6779009071566 386.89236299955525Q998.7819747643509 386.89236299955525 992.5634632858847 393.4347552841915Q986.3449518074186 399.9555555150831 985.1142047439722 410.66521417244144ZM1056.7782311225455 371.19493992717713L1056.7782311225455 371.19493992717713Q1056.7782311225455 359.1897580451383 1067.0992328124998 351.6109471807577Q1077.4202345024542 344.01054426263244 1090.9368601466203 344.01054426263244L1090.9368601466203 344.01054426263244Q1101.344230051553 344.01054426263244 1111.6652317415073 348.80398019395005L1111.6652317415073 348.80398019395005Q1115.0767762331657 350.31542395607727 1119.4167790358454 353.66219228650175L1119.4167790358454 353.66219228650175L1114.083541760911 365.105980771179Q1110.6719972692522 362.4501581605841 1106.9581640251686 360.48528126981876L1106.9581640251686 360.48528126981876Q1098.23497431232 355.8645817684585 1090.9368601466203 355.7782135534798L1090.9368601466203 355.7782135534798Q1083.055760529814 355.7782135534798 1076.902025212582 359.83751965747854Q1070.74828989535 363.89682576147726 1070.74828989535 371.19493992717713L1070.74828989535 371.19493992717713Q1070.74828989535 374.15305129019754 1071.9142607975623 376.6577295245797Q1073.1018237535195 379.1624077589619 1075.9951589553057 381.3647972409187L1075.9951589553057 381.3647972409187L1080.3783458654746 384.7763417325772Q1081.9113816813465 385.9207205810449 1086.186608322792 388.12311006300166Q1090.4834270179822 390.32549954495846 1090.9368601466203 390.62778829738386L1090.9368601466203 390.62778829738386L1098.1486060973414 394.57913413265925Q1103.3954751572974 397.45087728070087 1105.2955758868284 398.74640050538136L1105.2955758868284 398.74640050538136L1110.974286021678 402.546601964444Q1114.8608556957192 405.1160563600602 1116.4370756190804 407.2104855732936Q1118.0348875961863 409.304914786527 1120.042948594441 412.3278023107814Q1122.0726016464405 415.37228188878044 1122.828323527504 418.9349707566517Q1123.5840454085674 422.4976596245229 1123.5840454085674 426.8376624272024L1123.5840454085674 426.8376624272024Q1123.5840454085674 439.8792628889856 1112.7232423749965 448.6888208168126Q1101.8624393414252 457.4983787446397 1087.8276044073873 457.4983787446397L1087.8276044073873 457.4983787446397Q1076.1463033315185 457.4983787446397 1065.2855002979472 450.9775785137481L1065.2855002979472 450.9775785137481Q1060.4920643666296 448.17061152694043 1056.7782311225455 444.2840418528991L1056.7782311225455 444.2840418528991L1062.1762445587142 432.60274077703036Q1066.494655307649 436.4677183973271 1070.74828989535 439.123541007922L1070.74828989535 439.123541007922Q1080.7022266716447 445.66593329255824 1087.8276044073873 445.66593329255824L1087.8276044073873 445.66593329255824Q1096.853082872661 445.66593329255824 1103.2443307810845 440.3758801251131Q1109.6139866357635 435.1074190114126 1109.6139866357635 426.8376624272024L1109.6139866357635 426.8376624272024Q1109.6139866357635 419.53954826150255 1104.19438114585 413.77446991167454Q1098.7531836021922 408.00939156184654 1090.9368601466203 404.0580457265712L1090.9368601466203 404.0580457265712L1075.3689893967103 395.9394335185737Q1067.6390341561168 391.75057509210694 1062.197836612459 385.4888795061514Q1056.7782311225455 379.2271839201959 1056.7782311225455 371.19493992717713ZM1153.57540805992 389.39704123393744L1140.3610711681795 389.39704123393744L1140.3610711681795 377.4134514056433L1153.57540805992 377.4134514056433L1153.57540805992 354.8713472962035L1166.7681528979158 354.8713472962035L1166.7681528979158 377.4134514056433L1186.0498568919097 377.4134514056433L1186.0498568919097 389.39704123393744L1166.7681528979158 389.39704123393744L1166.7681528979158 432.30045202460497Q1166.7681528979158 438.06553037443297 1168.5602933587238 440.6133927163045Q1170.3524338195316 443.16125505817604 1176.419800921785 443.16125505817604L1176.419800921785 443.16125505817604L1184.452044914804 443.16125505817604L1184.452044914804 455.1448448864702L1170.5035781957445 455.1448448864702Q1162.903175277619 455.1448448864702 1158.2392916687695 451.12872288996084Q1153.57540805992 447.0910088397068 1153.57540805992 440.18155164141103L1153.57540805992 440.18155164141103L1153.57540805992 389.39704123393744ZM1201.3154388893945 430.5514956712864L1201.3154388893945 430.5514956712864Q1201.3154388893945 420.1441257663534 1208.894249753775 413.1698924068237Q1216.4946526719004 406.1740669935492 1230.227198853513 406.1740669935492L1230.227198853513 406.1740669935492L1250.890794287166 406.1740669935492L1250.890794287166 400.2578442675085Q1250.890794287166 393.13246653176606 1248.0838273003587 390.08798695376703Q1245.2552682598061 387.04350737576794 1237.6764573954256 387.04350737576794L1237.6764573954256 387.04350737576794Q1232.0625234218103 387.04350737576794 1220.5971428833882 388.27425443921436L1220.5971428833882 388.27425443921436L1210.1249968172215 389.54818561015014L1210.1249968172215 377.4134514056433Q1218.5458977776443 376.80887390079243 1222.5620197741537 376.3554407721542L1222.5620197741537 376.3554407721542Q1236.2297897945325 375.1462857624525 1242.9017344016368 375.0599175474738L1242.9017344016368 375.0599175474738Q1253.9136818114207 375.0599175474738 1259.0741826563976 381.27842902593994Q1264.234683501375 387.5185325581508 1264.234683501375 395.63714476614825L1264.234683501375 395.63714476614825L1264.234683501375 455.1448448864702L1254.4534831550377 455.1448448864702L1252.2510936730807 447.54444196834487L1251.7976605444426 447.54444196834487Q1238.2810349002766 456.7426568635761 1225.8224198895996 456.6562886485974L1225.8224198895996 456.6562886485974Q1213.989974437518 456.6562886485974 1207.6419106365838 448.6456367093233Q1201.3154388893945 440.65657682379384 1201.3154388893945 430.5514956712864ZM1214.8320645335605 430.5514956712864L1214.8320645335605 430.5514956712864Q1214.8320645335605 436.6188627735398 1218.0060964340273 441.4338907586021Q1221.2017203882392 446.27051079740914 1228.4782425001945 446.27051079740914L1228.4782425001945 446.27051079740914Q1233.6603353989162 446.27051079740914 1240.0299912535952 444.02493720796303Q1246.3996471082742 441.7793636185169 1250.7396499109536 438.8212522554966L1250.7396499109536 438.8212522554966L1250.890794287166 438.8212522554966L1250.890794287166 416.5814368984822L1230.227198853513 416.5814368984822Q1214.8320645335605 416.5814368984822 1214.8320645335605 430.5514956712864ZM1285.9562895685171 416.5814368984822L1285.9562895685171 416.5814368984822Q1285.9562895685171 405.8717782411238 1289.3678340601755 396.6951553996373Q1292.7793785518343 387.5185325581508 1300.4877417386829 381.27842902593994Q1308.1961049255315 375.0599175474738 1318.970539744124 375.0599175474738L1318.970539744124 375.0599175474738Q1328.4710433917808 375.0599175474738 1342.4195101108398 381.88300653079085L1342.4195101108398 381.88300653079085L1344.5571234315626 377.4134514056433L1352.9780243919854 377.4134514056433L1352.9780243919854 466.00564792004127Q1352.9780243919854 479.1983927580372 1345.2480691513924 486.5612830849711L1345.2480691513924 486.5612830849711Q1337.3453774808418 494.01054162688365 1322.015019322123 494.01054162688365L1322.015019322123 494.01054162688365Q1305.5402823149366 494.01054162688365 1288.612112179112 484.98506316160984L1288.612112179112 484.98506316160984L1295.2840567862163 474.8799820091024Q1308.951826806595 482.17809617480225 1322.015019322123 482.17809617480225L1322.015019322123 482.17809617480225Q1339.9148318764578 482.17809617480225 1339.9148318764578 466.00564792004127L1339.9148318764578 466.00564792004127L1339.9148318764578 452.18673352344985Q1330.1336315301205 457.4983787446397 1321.1081530648466 457.4983787446397L1321.1081530648466 457.4983787446397Q1304.331127305235 457.4983787446397 1295.1329124100034 445.66593329255824Q1285.9562895685171 433.8118957867322 1285.9562895685171 416.5814368984822ZM1298.8467456540875 415.6745706412059L1298.8467456540875 415.6745706412059Q1298.8467456540875 421.5907933672466 1300.0343086100447 426.64333394350035Q1301.200279512257 431.69587451975406 1303.791325961618 436.3597581286037Q1306.3823724109789 441.0236417374533 1311.2621765572753 443.6362802405589Q1316.1635727573162 446.27051079740914 1322.9866617406333 446.27051079740914L1322.9866617406333 446.27051079740914Q1332.9405985169283 446.27051079740914 1339.9148318764578 442.3839411233678L1339.9148318764578 442.3839411233678L1339.9148318764578 390.62778829738386Q1329.0756208966313 385.61843182861946 1320.7842722586765 385.6832079898535L1320.7842722586765 385.6832079898535Q1310.8519275361264 385.6832079898535 1304.8493365951072 393.5427155529149Q1298.8467456540875 401.40222311597626 1298.8467456540875 415.6745706412059ZM1388.7992415544 455.1448448864702L1375.9087854688296 455.1448448864702L1375.9087854688296 377.4134514056433L1385.2365526865287 377.4134514056433L1387.1366534160602 382.87624100304583Q1397.0905901923547 375.2974301386652 1404.8205454329482 375.21106192368654L1404.8205454329482 375.21106192368654Q1413.2630384471158 375.21106192368654 1420.3884161828582 378.9248951677705L1420.3884161828582 378.9248951677705L1415.2926914991153 389.39704123393744Q1408.620746892011 387.04350737576794 1403.0068129183956 387.04350737576794L1403.0068129183956 387.04350737576794Q1395.2552656240578 387.04350737576794 1388.7992415544 392.8301777793406L1388.7992415544 392.8301777793406L1388.7992415544 455.1448448864702ZM1428.89568535826 430.5514956712864L1428.89568535826 430.5514956712864Q1428.89568535826 420.1441257663534 1436.4744962226405 413.1698924068237Q1444.0748991407659 406.1740669935492 1457.8074453223785 406.1740669935492L1457.8074453223785 406.1740669935492L1478.449448702287 406.1740669935492L1478.449448702287 400.2578442675085Q1478.449448702287 393.13246653176606 1475.6424817154793 390.08798695376703Q1472.835514728672 387.04350737576794 1465.256703864291 387.04350737576794L1465.256703864291 387.04350737576794Q1459.642769890676 387.04350737576794 1448.177389352254 388.27425443921436L1448.177389352254 388.27425443921436L1437.705243286087 389.54818561015014L1437.705243286087 377.4134514056433Q1446.1261442465102 376.80887390079243 1450.142266243019 376.3554407721542L1450.142266243019 376.3554407721542Q1463.8100362633982 375.1462857624525 1470.4819808705024 375.0599175474738L1470.4819808705024 375.0599175474738Q1481.4939282802861 375.0599175474738 1486.654429125263 381.27842902593994Q1491.8149299702404 387.5185325581508 1491.8149299702404 395.63714476614825L1491.8149299702404 395.63714476614825L1491.8149299702404 455.1448448864702L1482.0337296239031 455.1448448864702L1479.831340141946 447.54444196834487L1479.3779070133082 447.54444196834487Q1465.861281369142 456.7426568635761 1453.402666358465 456.6562886485974L1453.402666358465 456.6562886485974Q1441.5702209063838 456.6562886485974 1435.2221571054497 448.6456367093233Q1428.89568535826 440.65657682379384 1428.89568535826 430.5514956712864ZM1442.4123110024261 430.5514956712864L1442.4123110024261 430.5514956712864Q1442.4123110024261 436.6188627735398 1445.5863429028932 441.4338907586021Q1448.7819668571046 446.27051079740914 1456.05848896906 446.27051079740914L1456.05848896906 446.27051079740914Q1461.2189898140373 446.27051079740914 1467.6102377224606 444.02493720796303Q1473.9798935771396 441.7793636185169 1478.2983043260742 438.8212522554966L1478.2983043260742 438.8212522554966L1478.449448702287 438.8212522554966L1478.449448702287 416.5814368984822L1457.8074453223785 416.5814368984822Q1442.4123110024261 416.5814368984822 1442.4123110024261 430.5514956712864ZM1527.6577391863993 455.1448448864702L1514.7456910470842 455.1448448864702L1514.7456910470842 377.4134514056433L1524.0734582647833 377.4134514056433L1525.6712702418895 381.88300653079085Q1534.3944599547376 375.0599175474738 1544.4995411072455 375.0599175474738L1544.4995411072455 375.0599175474738Q1550.4157638332858 375.0599175474738 1556.3751706668158 377.17593881445185Q1562.3345775003463 379.31355213517463 1565.7461219920046 383.1785297554713L1565.7461219920046 383.1785297554713Q1574.7931925110229 375.1462857624525 1586.1074286732323 375.0599175474738L1586.1074286732323 375.0599175474738Q1595.284051514719 375.0599175474738 1603.0571908628017 379.6590249950894Q1610.8519222646287 384.2365403889603 1610.8519222646287 392.22560027448975L1610.8519222646287 392.22560027448975L1610.8519222646287 455.1448448864702L1597.6375853728882 455.1448448864702L1597.6375853728882 398.3577435379772Q1597.6375853728882 386.9787312145339 1584.120959728722 387.04350737576794L1584.120959728722 387.04350737576794Q1575.7000587682996 387.04350737576794 1569.3304029136207 392.22560027448975L1569.3304029136207 392.22560027448975L1569.3304029136207 455.1448448864702L1556.1160660218802 455.1448448864702L1556.1160660218802 398.3577435379772Q1556.1160660218802 386.9787312145339 1542.599440377714 387.04350737576794L1542.599440377714 387.04350737576794Q1533.8762506648654 387.04350737576794 1527.6577391863993 392.37674465070245L1527.6577391863993 392.37674465070245L1527.6577391863993 455.1448448864702Z " fill="#a75880" transform="matrix(0.5431908323816,0,0,0.5431908323816,0,72.39728183393666)"/></g></svg>